<?xml version="1.0" standalone="no"?><!DOCTYPE svg PUBLIC "-//W3C//DTD SVG 1.1//EN" "http://www.w3.org/Graphics/SVG/1.1/DTD/svg11.dtd"><svg t="1740153229036" class="icon" viewBox="0 0 1024 1024" version="1.1" xmlns="http://www.w3.org/2000/svg" p-id="26225" width="64" height="64" xmlns:xlink="http://www.w3.org/1999/xlink"><path d="M853.04392354 182.47719778h-30.39515334V144.00320945H547.85129406V177.84064898H512.93667652v222.99926417h-33.83743953v34.91461757h-50.58053245v32.05775413h-51.65771047v36.34304925h-35.61712497v33.48618582h-68.04954968V504.5065878h-34.1886932v-34.18869323h-34.18869325v-69.47798142h-33.83743956v204.47648586h32.78367845v34.91461754h35.61712496v34.56336387h33.83743951v34.18869322h34.18869327v33.13493212h33.8374395v137.85536786h69.47798142v-35.26587121h-34.56336385v-33.83743953h34.18869325v-34.18869324h34.18869323v-33.83743957h34.56336383v33.83743957H512v103.31542091h68.63497251v-34.91461756h-33.13493215v-136.45035307h33.13493215v-34.56336381h35.26587125V622.76199931h33.48618584v-119.66042631h34.91461753v33.13493213h33.13493214v-66.97237166h-67.67487907v-68.75205711h136.07568248v-34.18869324h-101.53573556l-0.35125367-37.51389489h169.09353009v-146.33229044z m-237.56458424 47.4192492h-34.18869322v-34.18869324h34.18869322v34.18869324z" p-id="26226"></path></svg>